<svg width="442" height="458" viewBox="0 0 442 458" fill="none" xmlns="http://www.w3.org/2000/svg">
<path d="M247.307 18.8621C227.947 34.5847 210.989 49.3265 204.7 54.9416L204.672 54.9665L204.646 54.9934L185.635 74.7085L185.626 74.7179L185.617 74.7276L165.432 96.7898L165.419 96.8043L165.406 96.8193L151.324 113.483L151.279 113.537L151.242 113.596L143.262 126.27L143.249 126.29L143.238 126.31L135.258 140.392L135.215 140.468L135.186 140.551L128.614 159.092L128.591 159.156L128.578 159.221L125.527 173.773L125.505 173.874V173.978V188.53V188.64L125.529 188.748L128.581 202.361L128.603 202.461L128.645 202.554L135.217 217.106L135.32 217.335L135.521 217.489L151.48 229.693L151.556 229.751L151.641 229.793L165.723 236.834L165.756 236.851L165.79 236.865L182.045 243.556L182.104 243.58L182.165 243.597C184.542 244.238 185.833 244.434 187.38 244.669C187.522 244.691 187.667 244.713 187.815 244.736C189.539 245.001 191.761 245.37 196.262 246.471L196.319 246.485L196.376 246.492C200.365 246.991 204.732 247.615 208.103 248.114C209.789 248.364 211.224 248.582 212.239 248.738C212.746 248.816 213.147 248.879 213.422 248.922L213.736 248.971L213.803 248.981C214.018 249.034 214.261 249.092 214.529 249.156C217.847 249.951 225.037 251.674 229.97 254.35L241.674 262.64L246.143 274.381V285.581L242.696 300.289L230.893 316.258L217.401 329.75L197.327 343.288L174.358 356.413L174.342 356.422L174.327 356.432L160.814 364.819L147.049 369.408L136.585 368.295L130.45 362.159L127.474 351.398L125.886 344.822L127.475 336.877L131.426 324.327L136.966 313.063L143.945 305.215L150.826 299.317L157.758 295.243L158.873 294.588L157.959 293.674L152.795 288.511L152.611 288.326L152.36 288.255L139.921 284.735L139.787 284.697H139.649H126.505H126.361L126.223 284.738L114.253 288.258L114.036 288.322L113.867 288.474L102.367 298.801L102.336 298.828L102.308 298.858L91.0158 310.813L90.9415 310.892L90.8857 310.985L83.4015 323.439L83.3873 323.462L83.3745 323.487L77.2722 335.033L77.2409 335.092L77.2178 335.155L72.8043 347.155L72.7795 347.222L72.7645 347.293L70.8449 356.353L70.841 356.37L69.4367 362.455L69.4111 362.566V362.68V369.252V369.277L69.4123 369.302L69.8817 378.69L69.886 378.774L69.9043 378.857C70.6123 382.043 71.0852 384.736 71.4787 386.978L71.4839 387.008C71.8007 388.813 72.0714 390.355 72.3739 391.603C72.6694 392.821 73.0205 393.875 73.553 394.662L77.2881 401.198L77.3545 401.314L77.4492 401.409L83.5515 407.511L83.6296 407.589L83.7228 407.648L95.9274 415.394L96.0621 415.479L96.2168 415.519L110.064 419.039L110.149 419.061L110.237 419.067L129.482 420.497L129.519 420.5H129.556H149H149.095L149.188 420.482L175.042 415.532L175.068 415.527L175.094 415.52L193.166 411.061L193.283 411.032L193.39 410.976L213.575 400.414L213.584 400.409L213.594 400.404L236.594 387.73L236.638 387.706L236.678 387.679L267.424 366.555L267.453 366.536L267.48 366.514L304.094 337.411L304.139 337.375L304.179 337.335L327.415 314.099L327.492 314.021L327.551 313.929L345.154 286.233L345.202 286.159L345.235 286.077L352.276 268.944L352.351 268.761V268.564V242.512V242.345L352.297 242.187L346.899 226.462L346.824 226.243L346.66 226.079L336.568 215.987L336.554 215.973L336.539 215.959L327.386 207.51L327.232 207.368L327.035 207.3L309.432 201.198L309.292 201.149L309.143 201.143L267.556 199.559L253.202 198.512L241.912 194.641L229.709 187.742L222.004 179.023L219.063 166.912L222.033 151.373L232.407 136.388L256.435 114.927L277.44 101.39L309.507 85.9416L333.578 76.36L350.451 72.4783L363.357 69.9596C410.419 110.242 440.243 170.077 440.243 236.879C440.243 358.172 341.915 456.5 220.621 456.5C99.3279 456.5 1 358.172 1 236.879C1 115.585 99.3279 17.2573 220.621 17.2573C229.655 17.2573 238.56 17.8026 247.307 18.8621Z" fill="#581E33" stroke="#581E33" stroke-width="2"/>
<path d="M306.509 7.36078L306.519 7.35519L306.528 7.34939L313.658 2.9196L318.454 1.48054L321.873 1.02072L326.28 2.40286L349.935 20.1444L350.846 22.185L349.726 22.4719L345.46 21.5238L345.397 21.5099L345.333 21.5041L338.949 20.9249L338.869 20.9175L338.788 20.9233L325.644 21.8621L325.563 21.8679L325.484 21.8868L305.769 26.5808L305.673 26.6038L305.583 26.6452L282.112 37.4415L282.056 37.4673L282.004 37.4997L256.717 53.1497L256.667 53.1803L256.621 53.2165L232.856 72.068L232.819 72.0974L232.785 72.1301L191.711 111.56L191.678 111.592L191.648 111.627L179.444 125.709L179.392 125.768L179.351 125.835L168.085 143.907L168.039 143.981L168.006 144.063L160.261 163.308L160.206 163.445L160.192 163.592L158.549 181.899L158.536 182.052L158.568 182.202L160.211 189.713L160.249 189.884L160.342 190.032L167.149 200.829L167.25 200.989L167.402 201.101L180.78 210.958L180.861 211.018L180.954 211.061L190.107 215.286L190.233 215.344L190.37 215.366L212.622 218.879L241.351 226.119L251.488 230.958L260.001 237.63L267.886 247.138L273.178 254.731L275.697 262.288L277.305 269.641V278.452V287.208L274.575 295.401L265.972 309.815L249.635 331.754L233.096 346.429L202.466 367.239C200.509 368.177 197.864 369.458 195.223 370.737C194.112 371.275 193.001 371.813 191.943 372.325C190.139 373.198 188.486 373.995 187.236 374.591C186.61 374.889 186.088 375.136 185.698 375.316C185.503 375.406 185.345 375.479 185.225 375.532C185.165 375.558 185.117 375.579 185.08 375.594L185.059 375.603C185.036 375.613 185.027 375.616 185.029 375.615C176.961 378.475 170.782 378.323 165.713 378.113L180.11 372.43L180.192 372.398L180.267 372.352L193.398 364.266L193.415 364.255L193.432 364.244L216.302 348.829L216.359 348.791L216.41 348.744L237.431 329.892L237.502 329.828L237.56 329.752L254.459 307.455L254.509 307.388L254.548 307.314L262.528 292.059L262.6 291.921L262.627 291.767L265.208 276.981L265.24 276.798L265.204 276.616L262.623 263.473L262.599 263.352L262.547 263.241L257.149 251.74L257.057 251.546L256.894 251.406L243.751 240.14L243.587 240L243.38 239.939L219.205 232.898L219.159 232.885L219.113 232.876L199.406 229.122L199.397 229.121L174.961 224.233L154.855 210.598L144.776 196.625L142.943 183.562V168.791L150.365 148.844L160.399 130.643L171.834 113.84L185.155 99.1163L202.711 80.8585L228.385 59.2662L228.386 59.2653L243.843 46.3016L260.282 35.3424L288.752 17.8608L288.766 17.8522L306.509 7.36078Z" fill="#581E33" stroke="#581E33" stroke-width="2"/>
</svg>
