<?xml version="1.0" encoding="UTF-8"?>
<!DOCTYPE svg PUBLIC "-//W3C//DTD SVG 1.1//EN" "http://www.w3.org/Graphics/SVG/1.1/DTD/svg11.dtd">
<svg xmlns="http://www.w3.org/2000/svg" version="1.1" width="512px" height="512px" style="shape-rendering:geometricPrecision; text-rendering:geometricPrecision; image-rendering:optimizeQuality; fill-rule:evenodd; clip-rule:evenodd" xmlns:xlink="http://www.w3.org/1999/xlink">
<g><path style="opacity:0.971" fill="#fff" d="M 240.5,-0.5 C 243.167,-0.5 245.833,-0.5 248.5,-0.5C 272.656,16.137 296.989,32.637 321.5,49C 323.347,51.5791 323.847,54.4124 323,57.5C 298.382,75.4485 273.215,92.6152 247.5,109C 242.377,110.544 239.211,108.71 238,103.5C 237.832,92.8178 237.332,82.1511 236.5,71.5C 157.521,82.7139 102.021,124.714 70,197.5C 43.5337,272.813 55.5337,341.146 106,402.5C 162.105,461.491 229.938,481.658 309.5,463C 340.461,453.86 367.794,438.527 391.5,417C 392.784,416.316 393.951,416.483 395,417.5C 403.833,427 412.667,436.5 421.5,446C 380.879,483.806 332.879,505.64 277.5,511.5C 263.167,511.5 248.833,511.5 234.5,511.5C 139.015,499.17 71.5154,449.17 32,361.5C 1.84025,279.786 10.8403,202.786 59,130.5C 103.41,70.6637 162.91,37.3303 237.5,30.5C 237.334,22.16 237.5,13.8267 238,5.5C 238.236,3.18867 239.069,1.18867 240.5,-0.5 Z"/></g>
<g><path style="opacity:0.943" fill="#fff" d="M 351.5,49.5 C 367.224,55.1909 381.557,63.1909 394.5,73.5C 387.202,84.5966 379.535,95.43 371.5,106C 370.5,106.667 369.5,106.667 368.5,106C 357.794,98.9812 346.794,92.4812 335.5,86.5C 341.121,74.2617 346.454,61.9284 351.5,49.5 Z"/></g>
<g><path style="opacity:0.944" fill="#fff" d="M 431.5,106.5 C 443.474,117.659 453.474,130.493 461.5,145C 450.274,152.551 438.774,159.717 427,166.5C 419.085,155.684 410.918,145.018 402.5,134.5C 412.187,125.145 421.854,115.812 431.5,106.5 Z"/></g>
<g><path style="opacity:0.953" fill="#fff" d="M 204.5,181.5 C 233.603,182.605 249.269,197.605 251.5,226.5C 251.176,239.638 247.343,251.638 240,262.5C 229.648,276.86 217.815,290.026 204.5,302C 219.926,302.031 235.259,302.698 250.5,304C 253.931,307.222 255.265,311.222 254.5,316C 255.575,321.241 253.908,325.241 249.5,328C 222.216,329.632 194.882,329.965 167.5,329C 163.885,328.386 161.051,326.553 159,323.5C 158.333,318.833 158.333,314.167 159,309.5C 172.946,295.554 186.946,281.554 201,267.5C 208.48,259.879 214.48,251.212 219,241.5C 226.287,217.133 217.454,206.633 192.5,210C 186.564,212.806 180.564,215.306 174.5,217.5C 168.507,216.25 164.673,212.583 163,206.5C 161.849,202.171 162.682,198.338 165.5,195C 177.319,186.784 190.319,182.284 204.5,181.5 Z"/></g>
<g><path style="opacity:0.959" fill="#fff" d="M 306.5,184.5 C 313.841,184.334 321.174,184.5 328.5,185C 330.57,185.948 332.07,187.448 333,189.5C 334.472,215.102 334.972,240.769 334.5,266.5C 350.175,265.155 356.008,272.155 352,287.5C 350.833,289.333 349.333,290.833 347.5,292C 343.179,292.499 338.846,292.666 334.5,292.5C 334.926,302.912 334.426,313.246 333,323.5C 332.167,325.667 330.667,327.167 328.5,328C 322.5,330 316.5,330 310.5,328C 309.333,326.833 308.167,325.667 307,324.5C 305.571,313.912 305.071,303.245 305.5,292.5C 286.83,292.667 268.164,292.5 249.5,292C 245.021,288.928 243.021,284.595 243.5,279C 243.443,274.279 244.943,270.112 248,266.5C 267.276,238.924 286.776,211.59 306.5,184.5 Z M 304.5,228.5 C 305.495,240.989 305.829,253.656 305.5,266.5C 296.827,266.666 288.16,266.5 279.5,266C 288.055,253.618 296.389,241.118 304.5,228.5 Z"/></g>
<g><path style="opacity:0.95" fill="#fff" d="M 480.5,191.5 C 481.833,191.5 483.167,191.5 484.5,191.5C 489.572,206.791 492.906,222.457 494.5,238.5C 480.884,240.577 467.218,242.244 453.5,243.5C 451.736,230.17 448.902,217.17 445,204.5C 456.877,200.044 468.71,195.71 480.5,191.5 Z"/></g>
<g><path style="opacity:0.951" fill="#fff" d="M 455.5,285.5 C 469.144,286.755 482.811,287.755 496.5,288.5C 495.13,304.722 492.463,320.722 488.5,336.5C 475.131,333.533 461.964,329.866 449,325.5C 451.272,312.201 453.439,298.867 455.5,285.5 Z"/></g>
<g><path style="opacity:0.944" fill="#fff" d="M 431.5,364.5 C 444.397,369.948 456.73,376.448 468.5,384C 461.255,398.571 452.422,412.071 442,424.5C 431.187,416.019 420.687,407.185 410.5,398C 414.871,391.43 419.371,384.93 424,378.5C 426.78,373.938 429.28,369.272 431.5,364.5 Z"/></g>
</svg>
