<svg width="442" height="459" viewBox="0 0 442 459" fill="none" xmlns="http://www.w3.org/2000/svg">
<mask id="path-1-inside-1_53_4" fill="white">
<path d="M250.513 18.9067C230.417 35.1641 212.597 50.6495 206.123 56.4302L187.112 76.1453L166.927 98.2075L152.845 114.871L144.865 127.545L136.885 141.628L130.314 160.169L127.262 174.721V189.272L130.314 202.885L136.885 217.437L152.845 229.641L166.927 236.683L183.183 243.374C188.257 244.743 188.194 244.025 197.257 246.243C205.257 247.243 214.757 248.743 214.757 248.743C217.542 249.422 225.757 251.243 231.257 254.243L243.257 262.743L247.9 274.939V286.44L244.38 301.461L232.41 317.655L218.797 331.268L198.612 344.881L183.183 355.5L161.999 366.474L147.916 371.168L136.885 369.994L130.314 363.423L127.262 352.391L125.619 345.585L127.262 333.5L130 323.5L136.885 313.243L144 305.243L151 299.243L158.009 295.124L152.845 289.96L140.406 286.44H127.262L115.293 289.96L103.792 300.287L92.5 312.243L85.0158 324.696L78.9135 336.243L74.5 348.243L72.5765 357.32L71.1683 363.423V369.994L71.6377 379.382C72.351 382.593 72.8636 384.758 73.2572 387C75.1582 390.5 75.5 391 77 394L81.7572 400L88.2572 405.5L93.2572 409.5L98.2572 412.5L104.757 416L110.5 418.5L121 420.243L130.314 421.5L141 422L150 421L162.5 419L175.611 416L184.257 413.5L192.257 411.243L199.757 408L207.257 404.5L214.257 400.743L236.869 387.597L253.757 377.5L266.5 368.5L277.5 360L287 352.391L296.5 344.881L304.229 337.37L317.5 324.696L327.465 314.135L339 299.243L345.067 286.44L352.109 269.306L353.5 254.243L352.109 243.254L346.71 227.529L337.5 217.437L327.465 208.988L320 205.5L312 202.885L304.229 201.3L288.5 200.243L268.257 201.3L253.757 200.243L242.257 196.3L229.828 189.272L221.848 180.243L218.797 167.68L221.848 151.72L232.41 136.464L256.584 114.871L277.707 101.259L309.862 85.7682L334.036 76.1453L351 72.2427L364.396 69.6283C411.884 110.095 442 170.341 442 237.621C442 359.467 343.224 458.243 221.379 458.243C99.5327 458.243 0.757172 359.467 0.757172 237.621C0.757172 115.776 99.5327 17 221.379 17C231.255 17 240.98 17.649 250.513 18.9067Z"/>
</mask>
<path d="M250.513 18.9067C230.417 35.1641 212.597 50.6495 206.123 56.4302L187.112 76.1453L166.927 98.2075L152.845 114.871L144.865 127.545L136.885 141.628L130.314 160.169L127.262 174.721V189.272L130.314 202.885L136.885 217.437L152.845 229.641L166.927 236.683L183.183 243.374C188.257 244.743 188.194 244.025 197.257 246.243C205.257 247.243 214.757 248.743 214.757 248.743C217.542 249.422 225.757 251.243 231.257 254.243L243.257 262.743L247.9 274.939V286.44L244.38 301.461L232.41 317.655L218.797 331.268L198.612 344.881L183.183 355.5L161.999 366.474L147.916 371.168L136.885 369.994L130.314 363.423L127.262 352.391L125.619 345.585L127.262 333.5L130 323.5L136.885 313.243L144 305.243L151 299.243L158.009 295.124L152.845 289.96L140.406 286.44H127.262L115.293 289.96L103.792 300.287L92.5 312.243L85.0158 324.696L78.9135 336.243L74.5 348.243L72.5765 357.32L71.1683 363.423V369.994L71.6377 379.382C72.351 382.593 72.8636 384.758 73.2572 387C75.1582 390.5 75.5 391 77 394L81.7572 400L88.2572 405.5L93.2572 409.5L98.2572 412.5L104.757 416L110.5 418.5L121 420.243L130.314 421.5L141 422L150 421L162.5 419L175.611 416L184.257 413.5L192.257 411.243L199.757 408L207.257 404.5L214.257 400.743L236.869 387.597L253.757 377.5L266.5 368.5L277.5 360L287 352.391L296.5 344.881L304.229 337.37L317.5 324.696L327.465 314.135L339 299.243L345.067 286.44L352.109 269.306L353.5 254.243L352.109 243.254L346.71 227.529L337.5 217.437L327.465 208.988L320 205.5L312 202.885L304.229 201.3L288.5 200.243L268.257 201.3L253.757 200.243L242.257 196.3L229.828 189.272L221.848 180.243L218.797 167.68L221.848 151.72L232.41 136.464L256.584 114.871L277.707 101.259L309.862 85.7682L334.036 76.1453L351 72.2427L364.396 69.6283C411.884 110.095 442 170.341 442 237.621C442 359.467 343.224 458.243 221.379 458.243C99.5327 458.243 0.757172 359.467 0.757172 237.621C0.757172 115.776 99.5327 17 221.379 17C231.255 17 240.98 17.649 250.513 18.9067Z" stroke="#F4C644" stroke-width="20" mask="url(#path-1-inside-1_53_4)"/>
<path d="M347.743 19.5L323.743 1.5L318.96 0L315.243 0.5L310.243 2L303 6.5L285.243 17L256.743 34.5L240.243 45.5L224.743 58.5L199.027 80.1273L181.424 98.4342L168.046 113.22L156.545 130.119L146.453 148.426L138.943 168.611V183.632L140.82 197.01L151.147 211.327L171.566 225.174L185 229L202 231.5L215.925 233.858L240.1 240.899L253.243 252.165L258.641 263.665L261.223 276.809L258.641 291.595L250.662 306.851L233.763 329.148L212.743 348L189.873 363.415L176.743 371.5L157.743 379C163.454 378.844 171.243 380.5 182.363 376.558C183.154 376.277 194.411 370.769 199.966 368.109L230.712 347.22L247.376 332.434L263.805 310.372L272.489 295.82L275.305 287.371V278.452V269.533L273.663 262.023L271.081 254.277L265.683 246.532L257.703 236.909L249.019 230.103L238.692 225.174L224.743 221L208 218L187.526 214.378L178.373 210.153L164.995 200.296L158.188 189.499L156.545 181.989L158.188 163.682L165.934 144.436L177.199 126.364L189.404 112.282L230.477 72.8515L254.243 54L279.53 38.35L303 27.5536L322.716 22.8596L335.859 21.9208L342.243 22.5L346.743 23.5L349.243 22.8596L347.743 19.5Z" fill="#F4C644"/>
</svg>
