<svg width="1122" height="363" viewBox="0 0 1122 363" fill="none" xmlns="http://www.w3.org/2000/svg">
<path d="M60.7806 344.811C62.1226 346.153 64.0136 347.434 66.4536 348.654C68.8936 349.752 72.1266 350.301 76.1526 350.301C82.8626 350.301 88.4136 348.593 92.8056 345.177C97.3196 341.639 99.5766 336.759 99.5766 330.537C99.5766 326.023 98.1126 322.241 95.1846 319.191C92.3786 316.141 88.7796 313.335 84.3876 310.773C79.9956 308.211 75.2986 305.71 70.2966 303.27C65.2946 300.708 60.5976 297.719 56.2056 294.303C51.8136 290.887 48.1536 286.861 45.2256 282.225C42.4196 277.467 41.0166 271.611 41.0166 264.657C41.0166 258.679 42.1146 253.494 44.3106 249.102C46.5066 244.71 49.4956 241.111 53.2776 238.305C57.1816 235.377 61.7566 233.242 67.0026 231.9C72.2486 230.436 77.9216 229.704 84.0216 229.704C91.4636 229.704 98.3566 230.253 104.701 231.351C111.167 232.327 116.962 233.913 122.086 236.109C121.964 238.549 121.72 241.355 121.354 244.527C121.11 247.699 120.744 250.871 120.256 254.043C119.768 257.093 119.219 260.021 118.609 262.827C118.121 265.511 117.633 267.768 117.145 269.598H109.642L101.224 244.527C99.7596 243.795 97.5636 243.124 94.6356 242.514C91.8296 241.904 88.9016 241.599 85.8516 241.599C80.7276 241.599 76.3966 242.941 72.8586 245.625C69.3206 248.309 67.5516 252.213 67.5516 257.337C67.5516 261.973 69.0156 265.938 71.9436 269.232C74.8716 272.404 78.5316 275.332 82.9236 278.016C87.3156 280.7 92.0736 283.384 97.1976 286.068C102.444 288.63 107.263 291.619 111.655 295.035C116.047 298.451 119.707 302.477 122.635 307.113C125.563 311.627 127.027 317.239 127.027 323.949C127.027 336.149 122.879 345.604 114.583 352.314C106.409 358.902 94.3306 362.196 78.3486 362.196C74.4446 362.196 70.4796 361.952 66.4536 361.464C62.5496 360.976 58.8286 360.305 55.2906 359.451C51.7526 358.597 48.5806 357.682 45.7746 356.706C43.0906 355.73 41.0776 354.693 39.7356 353.595C39.8576 350.789 40.1626 347.8 40.6506 344.628C41.1386 341.334 41.6266 338.101 42.1146 334.929C42.7246 331.635 43.3346 328.524 43.9446 325.596C44.5546 322.668 45.1646 320.106 45.7746 317.91H53.2776L60.7806 344.811ZM228.339 360H165.387V353.046C167.827 352.07 170.572 351.094 173.622 350.118C176.794 349.02 179.966 348.227 183.138 347.739V243.795H161.91L150.198 275.088H142.695C142.207 272.648 141.719 269.537 141.231 265.755C140.743 261.973 140.316 258.069 139.95 254.043C139.584 250.017 139.279 246.052 139.035 242.148C138.791 238.122 138.669 234.706 138.669 231.9H255.057C255.057 234.828 254.935 238.244 254.691 242.148C254.447 246.052 254.142 250.017 253.776 254.043C253.41 258.069 252.983 261.973 252.495 265.755C252.007 269.415 251.519 272.526 251.031 275.088H243.528L231.816 243.795H210.588V347.739C213.76 348.349 216.871 349.081 219.921 349.935C223.093 350.789 225.899 351.826 228.339 353.046V360ZM305.75 347.739C308.556 348.349 311.057 349.142 313.253 350.118C315.449 351.094 317.584 352.07 319.658 353.046V360H263.294V353.046C265.978 351.582 268.54 350.484 270.98 349.752C273.42 348.898 275.86 348.227 278.3 347.739V244.161C272.2 242.819 267.198 241.05 263.294 238.854V231.9H282.692C285.132 231.9 287.877 231.839 290.927 231.717C294.099 231.595 297.393 231.473 300.809 231.351C304.225 231.107 307.702 230.924 311.24 230.802C314.778 230.558 318.194 230.436 321.488 230.436C328.198 230.436 334.359 231.229 339.971 232.815C345.705 234.279 350.585 236.536 354.611 239.586C358.759 242.636 361.931 246.479 364.127 251.115C366.445 255.629 367.604 260.936 367.604 267.036C367.604 275.82 365.469 283.018 361.199 288.63C356.929 294.242 351.073 298.451 343.631 301.257C348.511 308.943 353.696 316.812 359.186 324.864C364.676 332.794 370.471 340.48 376.571 347.922L385.355 353.778V360H354.794L346.925 353.961C341.313 347.251 336.311 339.504 331.919 330.72C327.649 321.814 323.867 313.091 320.573 304.551H305.75V347.739ZM314.9 242.331C311.118 242.331 308.068 242.697 305.75 243.429V294.486H316.547C322.769 294.486 328.076 292.29 332.468 287.898C336.86 283.384 339.056 276.735 339.056 267.951C339.056 263.437 338.446 259.594 337.226 256.422C336.006 253.128 334.298 250.444 332.102 248.37C329.906 246.296 327.344 244.771 324.416 243.795C321.488 242.819 318.316 242.331 314.9 242.331ZM451.65 360H394.554V353.046C399.434 350.362 404.375 348.593 409.377 347.739V244.161C406.937 243.795 404.375 243.124 401.691 242.148C399.007 241.172 396.628 240.074 394.554 238.854V231.9H451.65V238.854C449.454 240.196 447.014 241.355 444.33 242.331C441.768 243.185 439.267 243.795 436.827 244.161V347.739C439.267 348.227 441.768 348.898 444.33 349.752C447.014 350.606 449.454 351.704 451.65 353.046V360ZM575.371 351.948C572.931 353.168 569.942 354.388 566.404 355.608C562.866 356.828 559.145 357.926 555.241 358.902C551.337 359.878 547.433 360.671 543.529 361.281C539.625 361.891 536.148 362.196 533.098 362.196C522.606 362.196 513.212 360.854 504.916 358.17C496.742 355.364 489.727 351.216 483.871 345.726C478.137 340.114 473.745 333.16 470.695 324.864C467.645 316.568 466.12 306.93 466.12 295.95C466.12 283.994 467.95 273.868 471.61 265.572C475.392 257.154 480.333 250.322 486.433 245.076C492.655 239.708 499.67 235.804 507.478 233.364C515.286 230.924 523.277 229.704 531.451 229.704C539.503 229.704 547.067 230.253 554.143 231.351C561.219 232.449 566.831 234.035 570.979 236.109C570.979 237.939 570.857 240.318 570.613 243.246C570.491 246.052 570.247 249.102 569.881 252.396C569.515 255.69 569.027 258.984 568.417 262.278C567.929 265.572 567.319 268.561 566.587 271.245H559.084L548.836 243.429C547.494 242.819 545.481 242.392 542.797 242.148C540.113 241.782 537.429 241.599 534.745 241.599C529.743 241.599 524.924 242.575 520.288 244.527C515.652 246.479 511.565 249.651 508.027 254.043C504.489 258.313 501.683 263.925 499.609 270.879C497.535 277.711 496.498 286.068 496.498 295.95C496.498 304.002 497.413 311.383 499.243 318.093C501.195 324.681 503.879 330.354 507.295 335.112C510.711 339.87 514.798 343.591 519.556 346.275C524.314 348.959 529.56 350.301 535.294 350.301C537.124 350.301 539.015 350.179 540.967 349.935C542.919 349.569 544.749 349.142 546.457 348.654C548.165 348.166 549.629 347.617 550.849 347.007C552.191 346.397 553.106 345.848 553.594 345.36V310.956C550.422 310.712 547.433 310.102 544.627 309.126C541.821 308.15 539.198 306.991 536.758 305.649V298.695H586.717V305.649C585.619 306.747 584.155 307.784 582.325 308.76C580.495 309.614 578.177 310.346 575.371 310.956V351.948ZM653.143 360H596.047V353.046C600.927 350.362 605.868 348.593 610.87 347.739V244.161C608.43 243.795 605.868 243.124 603.184 242.148C600.5 241.172 598.121 240.074 596.047 238.854V231.9H653.143V238.854C650.947 240.196 648.507 241.355 645.823 242.331C643.261 243.185 640.76 243.795 638.32 244.161V347.739C640.76 348.227 643.261 348.898 645.823 349.752C648.507 350.606 650.947 351.704 653.143 353.046V360ZM750.146 231.9H795.53V238.854C793.212 240.684 790.65 242.331 787.844 243.795C785.038 245.137 782.415 246.174 779.975 246.906V362.196H764.42L699.821 268.866L692.501 254.775H691.952L693.599 269.415V345.726C696.039 346.336 698.723 347.373 701.651 348.837C704.701 350.179 707.263 351.582 709.337 353.046V360H664.136V353.046C666.332 351.582 668.711 350.24 671.273 349.02C673.957 347.678 676.702 346.58 679.508 345.726V245.808C677.068 244.832 674.628 243.734 672.188 242.514C669.748 241.294 667.552 240.013 665.6 238.671V231.9H705.128L757.649 308.028L766.067 323.766H766.799L765.884 308.028V246.906C762.956 245.93 760.089 244.771 757.283 243.429C754.599 241.965 752.22 240.44 750.146 238.854V231.9ZM808.123 295.95C808.123 286.434 809.465 277.65 812.149 269.598C814.833 261.424 818.798 254.409 824.044 248.553C829.29 242.575 835.756 237.939 843.442 234.645C851.128 231.351 859.973 229.704 869.977 229.704C879.981 229.704 888.826 231.351 896.512 234.645C904.198 237.939 910.603 242.575 915.727 248.553C920.973 254.409 924.938 261.424 927.622 269.598C930.306 277.65 931.648 286.434 931.648 295.95C931.648 305.466 930.306 314.311 927.622 322.485C924.938 330.537 920.973 337.552 915.727 343.53C910.603 349.386 904.198 353.961 896.512 357.255C888.826 360.549 879.981 362.196 869.977 362.196C859.973 362.196 851.128 360.549 843.442 357.255C835.756 353.961 829.29 349.386 824.044 343.53C818.798 337.552 814.833 330.537 812.149 322.485C809.465 314.311 808.123 305.466 808.123 295.95ZM839.233 295.95C839.233 303.758 839.843 311.017 841.063 317.727C842.283 324.315 844.174 330.049 846.736 334.929C849.42 339.687 852.775 343.469 856.801 346.275C860.949 348.959 865.89 350.301 871.624 350.301C876.87 350.301 881.323 348.959 884.983 346.275C888.643 343.469 891.632 339.687 893.95 334.929C896.268 330.049 897.915 324.315 898.891 317.727C899.989 311.017 900.538 303.758 900.538 295.95C900.538 288.142 899.928 280.944 898.708 274.356C897.61 267.646 895.78 261.912 893.218 257.154C890.778 252.274 887.484 248.492 883.336 245.808C879.31 243.002 874.369 241.599 868.513 241.599C862.901 241.599 858.204 243.002 854.422 245.808C850.64 248.492 847.59 252.274 845.272 257.154C843.076 261.912 841.49 267.646 840.514 274.356C839.66 280.944 839.233 288.142 839.233 295.95Z" fill="white"/>
<path d="M405.492 23.7578L405.464 23.7815L405.437 23.8074L396.445 32.4906L396.436 32.4998L396.427 32.5091L386.88 42.2261L386.866 42.2403L386.853 42.2549L380.192 49.5944L380.145 49.6472L380.105 49.7063L376.33 55.2884L376.317 55.3082L376.304 55.3286L372.53 61.531L372.483 61.6093L372.45 61.6951L369.342 69.8615L369.316 69.9281L369.301 69.9976L367.858 76.4066L367.833 76.5151V76.6263V83.0354V83.154L367.861 83.2694L369.304 89.265L369.329 89.3701L369.376 89.4673L372.485 95.8764L372.596 96.1064L372.804 96.2546L380.353 101.63L380.428 101.683L380.511 101.722L387.171 104.823L387.203 104.838L387.236 104.85L394.924 107.798L394.98 107.819L395.038 107.834C396.188 108.122 396.819 108.212 397.556 108.316C397.623 108.326 397.691 108.335 397.761 108.345C398.564 108.46 399.601 108.62 401.716 109.102L401.769 109.114L401.823 109.12C403.705 109.34 405.766 109.614 407.359 109.834C408.155 109.943 408.834 110.039 409.312 110.108C409.552 110.142 409.742 110.17 409.871 110.189L410.019 110.21L410.032 110.212C410.13 110.234 410.238 110.258 410.356 110.285C411.928 110.636 415.246 111.377 417.517 112.517L422.886 116.059L424.891 120.963V125.708L423.309 131.994L417.828 138.899L411.514 144.779L402.078 150.705L391.231 156.477L391.215 156.485L391.2 156.494L384.859 160.16L378.499 162.134L373.819 161.67L371.157 159.192L369.797 154.611L369.084 151.86L369.799 148.529L371.642 143.077L374.204 138.227L377.426 134.852L380.616 132.306L383.855 130.533L385.07 129.868L384.057 128.924L381.614 126.65L381.431 126.479L381.188 126.415L375.304 124.865L375.179 124.831H375.05H368.833H368.699L368.569 124.867L362.908 126.418L362.697 126.475L362.53 126.615L357.091 131.163L357.059 131.19L357.03 131.218L351.689 136.484L351.611 136.561L351.551 136.654L348.012 142.139L347.996 142.163L347.982 142.188L345.096 147.273L345.061 147.334L345.035 147.399L342.948 152.684L342.92 152.755L342.903 152.83L341.998 156.809L341.993 156.828L341.332 159.497L341.302 159.616V159.738V162.632V162.659L341.304 162.686L341.526 166.821L341.531 166.911L341.552 166.999C341.883 168.387 342.104 169.561 342.29 170.549L342.296 170.578C342.443 171.36 342.574 172.055 342.723 172.624C342.864 173.169 343.049 173.712 343.357 174.146L344.559 176.103C323.344 158.48 310 132.838 310 104.33C310 51.2828 356.202 8.16016 413.347 8.16016C417.124 8.16016 420.853 8.34863 424.524 8.71595C415.839 15.3167 408.348 21.3832 405.492 23.7578ZM455.233 88.0316L435.571 87.3339L428.85 86.8776L423.61 85.2046L417.955 82.2274L414.472 78.5568L413.153 73.4981L414.504 66.9143L419.296 60.4691L430.579 51.0843L440.453 45.1588L455.576 38.3743L466.911 34.1727L474.848 32.4722L480.722 31.4047C502.761 49.053 516.694 75.1857 516.694 104.33C516.694 157.377 470.493 200.5 413.347 200.5C391.664 200.5 371.556 194.291 354.95 183.688L360.943 185.107L361.023 185.125L361.105 185.131L370.207 185.761L370.242 185.763H370.276H379.472H379.561L379.648 185.748L391.876 183.567L391.901 183.563L391.925 183.557L400.472 181.593L400.584 181.568L400.686 181.518L410.233 176.866L410.242 176.861L410.252 176.857L421.13 171.275L421.173 171.253L421.213 171.227L435.755 161.924L435.783 161.905L435.811 161.885L453.128 149.067L453.173 149.033L453.214 148.995L464.204 138.761L464.286 138.685L464.349 138.593L472.674 126.395L472.726 126.319L472.763 126.235L476.093 118.689L476.179 118.496V118.285V106.811V106.633L476.117 106.465L473.564 99.5392L473.481 99.3156L473.307 99.1532L468.533 94.7082L468.519 94.6947L468.504 94.6817L464.175 90.9603L464.022 90.8289L463.83 90.767L455.504 88.0793L455.372 88.0365L455.233 88.0316Z" fill="white" stroke="white" stroke-width="2"/>
<path d="M463.101 1.57452L474.103 9.25787L474.106 9.26455L472.492 8.93059L472.433 8.91844L472.374 8.91339L469.354 8.65827L469.279 8.65192L469.204 8.65693L462.987 9.07042L462.911 9.07546L462.837 9.09192L453.512 11.1594L453.421 11.1796L453.335 11.2164L442.234 15.9716L442.18 15.9948L442.129 16.0244L430.169 22.9172L430.12 22.9455L430.074 22.9793L418.833 31.2821L418.796 31.3099L418.761 31.341L399.335 48.7075L399.3 48.7381L399.269 48.7718L393.497 54.9741L393.442 55.0326L393.398 55.0991L388.069 63.0588L388.019 63.1346L387.982 63.2183L384.319 71.6949L384.257 71.8392L384.242 71.9956L383.465 80.0587L383.449 80.2228L383.487 80.3833L384.264 83.6912L384.306 83.8706L384.409 84.0231L387.628 88.7782L387.734 88.9351L387.891 89.0422L394.218 93.3838L394.299 93.4393L394.389 93.478L398.718 95.3387L398.838 95.3903L398.968 95.4093L409.472 96.9538L422.993 100.127L427.694 102.216L431.629 105.088L435.304 109.215L437.741 112.472L438.892 115.688L439.63 118.828V122.641V126.395L438.395 129.846L434.377 136.116L426.704 145.711L418.95 152.117L404.523 161.245C403.6 161.657 402.362 162.215 401.128 162.772C400.603 163.009 400.078 163.246 399.578 163.471C398.725 163.855 397.945 164.205 397.355 164.467C397.059 164.598 396.814 164.706 396.632 164.785C396.475 164.853 396.394 164.886 396.367 164.896C396.359 164.9 396.356 164.901 396.357 164.901C394.089 165.65 392.159 165.919 390.459 165.994L394.358 164.561L394.437 164.532L394.51 164.49L400.721 160.929L400.738 160.919L400.755 160.908L411.571 154.119L411.629 154.083L411.681 154.04L421.623 145.737L421.696 145.675L421.757 145.6L429.75 135.78L429.804 135.713L429.846 135.638L433.62 128.919L433.701 128.776L433.731 128.614L434.952 122.101L434.989 121.905L434.948 121.711L433.727 115.922L433.7 115.794L433.641 115.678L431.088 110.613L430.99 110.418L430.819 110.281L424.603 105.319L424.441 105.19L424.241 105.136L412.807 102.035L412.764 102.023L412.72 102.015L403.403 100.363L403.395 100.361L391.936 98.2271L382.59 92.3246L377.973 86.3639L377.135 80.8033V74.4548L380.587 65.8152L385.296 57.8604L390.666 50.5131L396.934 44.0618L405.21 36.0459L417.331 26.5537L417.332 26.5529L424.62 20.8611L432.362 16.0542L445.819 8.35952L454.211 3.73883L454.221 3.73371L454.23 3.7284L457.545 1.8099L459.717 1.20326L461.196 1.01801L463.101 1.57452Z" fill="white" stroke="white" stroke-width="2"/>
<path d="M25.84 143H1.6V139.96C2.50667 139.48 3.54667 139.027 4.72 138.6C5.94667 138.173 7.09333 137.853 8.16 137.64V92.36C6.88 92.1467 5.65333 91.8267 4.48 91.4C3.30667 90.9733 2.34667 90.52 1.6 90.04V87H25.84V90.04C25.04 90.5733 24.1333 91.0533 23.12 91.48C22.16 91.9067 21.1733 92.2 20.16 92.36V111.72H41.36V92.36C40.1867 92.1467 39.12 91.8267 38.16 91.4C37.2533 90.9733 36.4267 90.52 35.68 90.04V87H59.92V90.04C59.0133 90.6267 57.9733 91.1067 56.8 91.48C55.6267 91.8533 54.48 92.1467 53.36 92.36V137.64C54.5867 137.853 55.76 138.173 56.88 138.6C58.0533 139.027 59.0667 139.48 59.92 139.96V143H35.68V139.96C36.48 139.48 37.36 139.027 38.32 138.6C39.28 138.173 40.2933 137.853 41.36 137.64V116.92H20.16V137.64C21.2267 137.853 22.2133 138.147 23.12 138.52C24.0267 138.893 24.9333 139.373 25.84 139.96V143ZM71.0044 115C71.0044 110.84 71.591 107 72.7644 103.48C73.9377 99.9067 75.671 96.84 77.9644 94.28C80.2577 91.6667 83.0844 89.64 86.4444 88.2C89.8044 86.76 93.671 86.04 98.0444 86.04C102.418 86.04 106.284 86.76 109.644 88.2C113.004 89.64 115.804 91.6667 118.044 94.28C120.338 96.84 122.071 99.9067 123.244 103.48C124.418 107 125.004 110.84 125.004 115C125.004 119.16 124.418 123.027 123.244 126.6C122.071 130.12 120.338 133.187 118.044 135.8C115.804 138.36 113.004 140.36 109.644 141.8C106.284 143.24 102.418 143.96 98.0444 143.96C93.671 143.96 89.8044 143.24 86.4444 141.8C83.0844 140.36 80.2577 138.36 77.9644 135.8C75.671 133.187 73.9377 130.12 72.7644 126.6C71.591 123.027 71.0044 119.16 71.0044 115ZM84.6044 115C84.6044 118.413 84.871 121.587 85.4044 124.52C85.9377 127.4 86.7644 129.907 87.8844 132.04C89.0577 134.12 90.5244 135.773 92.2844 137C94.0977 138.173 96.2577 138.76 98.7644 138.76C101.058 138.76 103.004 138.173 104.604 137C106.204 135.773 107.511 134.12 108.524 132.04C109.538 129.907 110.258 127.4 110.684 124.52C111.164 121.587 111.404 118.413 111.404 115C111.404 111.587 111.138 108.44 110.604 105.56C110.124 102.627 109.324 100.12 108.204 98.04C107.138 95.9067 105.698 94.2533 103.884 93.08C102.124 91.8533 99.9644 91.24 97.4044 91.24C94.951 91.24 92.8977 91.8533 91.2444 93.08C89.591 94.2533 88.2577 95.9067 87.2444 98.04C86.2844 100.12 85.591 102.627 85.1644 105.56C84.791 108.44 84.6044 111.587 84.6044 115ZM174.997 143H147.477V139.96C148.544 139.533 149.744 139.107 151.077 138.68C152.464 138.2 153.85 137.853 155.237 137.64V92.2H145.957L140.837 105.88H137.557C137.344 104.813 137.13 103.453 136.917 101.8C136.704 100.147 136.517 98.44 136.357 96.68C136.197 94.92 136.064 93.1867 135.957 91.48C135.85 89.72 135.797 88.2267 135.797 87H186.677C186.677 88.28 186.624 89.7733 186.517 91.48C186.41 93.1867 186.277 94.92 186.117 96.68C185.957 98.44 185.77 100.147 185.557 101.8C185.344 103.4 185.13 104.76 184.917 105.88H181.637L176.517 92.2H167.237V137.64C168.624 137.907 169.984 138.227 171.317 138.6C172.704 138.973 173.93 139.427 174.997 139.96V143ZM237.958 87C237.851 89.4 237.665 91.88 237.398 94.44C237.131 97 236.785 99.4 236.358 101.64H233.078L229.398 92.2H214.438V111.8H224.198L227.718 105.64H230.278C230.545 108.253 230.678 111.16 230.678 114.36C230.678 117.56 230.545 120.547 230.278 123.32H227.718L224.198 117H214.438V137.8H230.038L234.278 127.64H237.558C237.771 128.653 237.985 129.8 238.198 131.08C238.411 132.36 238.571 133.693 238.678 135.08C238.838 136.413 238.945 137.773 238.998 139.16C239.105 140.547 239.158 141.827 239.158 143H195.878V139.96C196.785 139.48 197.798 139.027 198.918 138.6C200.038 138.173 201.211 137.853 202.438 137.64V92.36C201.371 92.1467 200.225 91.8533 198.998 91.48C197.825 91.0533 196.785 90.5733 195.878 90.04V87H237.958ZM250.559 87H276.799V90.04C275.679 90.6267 274.426 91.1333 273.039 91.56C271.706 91.9333 270.399 92.2 269.119 92.36V137.8H284.559L289.919 123.48H293.199C293.413 124.707 293.599 126.147 293.759 127.8C293.973 129.453 294.133 131.187 294.239 133C294.346 134.813 294.426 136.6 294.479 138.36C294.533 140.12 294.533 141.667 294.479 143H250.559V139.96C251.786 139.32 252.933 138.813 253.999 138.44C255.119 138.067 256.159 137.8 257.119 137.64V92.36C254.506 91.9333 252.319 91.16 250.559 90.04V87ZM545.86 137.64C547.087 137.907 548.18 138.253 549.14 138.68C550.1 139.107 551.033 139.533 551.94 139.96V143H527.3V139.96C528.473 139.32 529.593 138.84 530.66 138.52C531.727 138.147 532.793 137.853 533.86 137.64V92.36C531.193 91.7733 529.007 91 527.3 90.04V87H535.78C536.847 87 538.047 86.9733 539.38 86.92C540.767 86.8667 542.207 86.8133 543.7 86.76C545.193 86.6533 546.713 86.5733 548.26 86.52C549.807 86.4133 551.3 86.36 552.74 86.36C555.673 86.36 558.367 86.7067 560.82 87.4C563.327 88.04 565.46 89.0267 567.22 90.36C569.033 91.6933 570.42 93.3733 571.38 95.4C572.393 97.3733 572.9 99.6933 572.9 102.36C572.9 106.2 571.967 109.347 570.1 111.8C568.233 114.253 565.673 116.093 562.42 117.32C564.553 120.68 566.82 124.12 569.22 127.64C571.62 131.107 574.153 134.467 576.82 137.72L580.66 140.28V143H567.3L563.86 140.36C561.407 137.427 559.22 134.04 557.3 130.2C555.433 126.307 553.78 122.493 552.34 118.76H545.86V137.64ZM549.86 91.56C548.207 91.56 546.873 91.72 545.86 92.04V114.36H550.58C553.3 114.36 555.62 113.4 557.54 111.48C559.46 109.507 560.42 106.6 560.42 102.76C560.42 100.787 560.153 99.1067 559.62 97.72C559.087 96.28 558.34 95.1067 557.38 94.2C556.42 93.2933 555.3 92.6267 554.02 92.2C552.74 91.7733 551.353 91.56 549.86 91.56ZM631.561 87C631.455 89.4 631.268 91.88 631.001 94.44C630.735 97 630.388 99.4 629.961 101.64H626.681L623.001 92.2H608.041V111.8H617.801L621.321 105.64H623.881C624.148 108.253 624.281 111.16 624.281 114.36C624.281 117.56 624.148 120.547 623.881 123.32H621.321L617.801 117H608.041V137.8H623.641L627.881 127.64H631.161C631.375 128.653 631.588 129.8 631.801 131.08C632.015 132.36 632.175 133.693 632.281 135.08C632.441 136.413 632.548 137.773 632.601 139.16C632.708 140.547 632.761 141.827 632.761 143H589.481V139.96C590.388 139.48 591.401 139.027 592.521 138.6C593.641 138.173 594.815 137.853 596.041 137.64V92.36C594.975 92.1467 593.828 91.8533 592.601 91.48C591.428 91.0533 590.388 90.5733 589.481 90.04V87H631.561ZM655.123 136.36C655.709 136.947 656.536 137.507 657.603 138.04C658.669 138.52 660.083 138.76 661.843 138.76C664.776 138.76 667.203 138.013 669.123 136.52C671.096 134.973 672.083 132.84 672.083 130.12C672.083 128.147 671.443 126.493 670.163 125.16C668.936 123.827 667.363 122.6 665.443 121.48C663.523 120.36 661.469 119.267 659.283 118.2C657.096 117.08 655.043 115.773 653.122 114.28C651.203 112.787 649.603 111.027 648.323 109C647.096 106.92 646.483 104.36 646.483 101.32C646.483 98.7067 646.963 96.44 647.923 94.52C648.883 92.6 650.189 91.0267 651.843 89.8C653.549 88.52 655.549 87.5867 657.843 87C660.136 86.36 662.616 86.04 665.283 86.04C668.536 86.04 671.549 86.28 674.323 86.76C677.149 87.1867 679.683 87.88 681.923 88.84C681.869 89.9067 681.763 91.1333 681.603 92.52C681.496 93.9067 681.336 95.2933 681.123 96.68C680.909 98.0133 680.669 99.2933 680.403 100.52C680.189 101.693 679.976 102.68 679.763 103.48H676.483L672.803 92.52C672.163 92.2 671.203 91.9067 669.923 91.64C668.696 91.3733 667.416 91.24 666.082 91.24C663.843 91.24 661.949 91.8267 660.403 93C658.856 94.1733 658.083 95.88 658.083 98.12C658.083 100.147 658.723 101.88 660.003 103.32C661.283 104.707 662.883 105.987 664.803 107.16C666.723 108.333 668.803 109.507 671.043 110.68C673.336 111.8 675.443 113.107 677.363 114.6C679.283 116.093 680.883 117.853 682.163 119.88C683.443 121.853 684.083 124.307 684.083 127.24C684.083 132.573 682.269 136.707 678.643 139.64C675.069 142.52 669.789 143.96 662.803 143.96C661.096 143.96 659.363 143.853 657.603 143.64C655.896 143.427 654.269 143.133 652.723 142.76C651.176 142.387 649.789 141.987 648.563 141.56C647.389 141.133 646.509 140.68 645.923 140.2C645.976 138.973 646.109 137.667 646.323 136.28C646.536 134.84 646.749 133.427 646.963 132.04C647.229 130.6 647.496 129.24 647.763 127.96C648.029 126.68 648.296 125.56 648.563 124.6H651.843L655.123 136.36ZM733.972 143H706.452V139.96C707.519 139.533 708.719 139.107 710.052 138.68C711.439 138.2 712.825 137.853 714.212 137.64V92.2H704.932L699.812 105.88H696.532C696.319 104.813 696.105 103.453 695.892 101.8C695.679 100.147 695.492 98.44 695.332 96.68C695.172 94.92 695.039 93.1867 694.932 91.48C694.825 89.72 694.772 88.2267 694.772 87H745.652C745.652 88.28 745.599 89.7733 745.492 91.48C745.385 93.1867 745.252 94.92 745.092 96.68C744.932 98.44 744.745 100.147 744.532 101.8C744.319 103.4 744.105 104.76 743.892 105.88H740.612L735.492 92.2H726.212V137.64C727.599 137.907 728.959 138.227 730.292 138.6C731.679 138.973 732.905 139.427 733.972 139.96V143ZM765.826 143H746.066V139.96C746.919 139.427 747.826 138.973 748.786 138.6C749.799 138.173 750.786 137.853 751.746 137.64L772.386 86.04H778.306L798.386 137.64C799.452 137.853 800.519 138.173 801.586 138.6C802.652 138.973 803.586 139.427 804.386 139.96V143H779.346V139.96C780.359 139.48 781.452 139.027 782.626 138.6C783.799 138.173 784.919 137.853 785.986 137.64L781.346 124.92H763.586L758.866 137.64C761.319 137.96 763.639 138.733 765.826 139.96V143ZM765.506 119.72H779.666L774.466 104.44L772.946 97.56H772.786L771.026 104.6L765.506 119.72ZM811.307 87H835.947V90.04C834.187 91.16 832.16 91.9333 829.867 92.36V123.16C829.867 125.773 830.16 127.96 830.747 129.72C831.334 131.48 832.187 132.92 833.307 134.04C834.427 135.107 835.76 135.88 837.307 136.36C838.907 136.84 840.694 137.08 842.667 137.08C844.427 137.08 846.027 136.84 847.467 136.36C848.96 135.827 850.24 135 851.307 133.88C852.427 132.76 853.28 131.293 853.867 129.48C854.454 127.667 854.747 125.427 854.747 122.76V92.76C853.52 92.4933 852.24 92.12 850.907 91.64C849.627 91.16 848.56 90.6267 847.707 90.04V87H867.547V90.04C866.587 90.7333 865.52 91.2933 864.347 91.72C863.174 92.1467 862.027 92.4933 860.907 92.76V122.84C860.907 129.667 859.094 134.867 855.467 138.44C851.894 141.96 846.827 143.72 840.267 143.72C833.12 143.72 827.6 142.12 823.707 138.92C819.814 135.72 817.867 130.6 817.867 123.56V92.36C816.8 92.2 815.68 91.9333 814.507 91.56C813.334 91.1333 812.267 90.6267 811.307 90.04V87ZM894.494 137.64C895.721 137.907 896.814 138.253 897.774 138.68C898.734 139.107 899.668 139.533 900.574 139.96V143H875.934V139.96C877.108 139.32 878.228 138.84 879.294 138.52C880.361 138.147 881.428 137.853 882.494 137.64V92.36C879.828 91.7733 877.641 91 875.934 90.04V87H884.414C885.481 87 886.681 86.9733 888.014 86.92C889.401 86.8667 890.841 86.8133 892.334 86.76C893.828 86.6533 895.348 86.5733 896.894 86.52C898.441 86.4133 899.934 86.36 901.374 86.36C904.308 86.36 907.001 86.7067 909.454 87.4C911.961 88.04 914.094 89.0267 915.854 90.36C917.668 91.6933 919.054 93.3733 920.014 95.4C921.028 97.3733 921.534 99.6933 921.534 102.36C921.534 106.2 920.601 109.347 918.734 111.8C916.868 114.253 914.308 116.093 911.054 117.32C913.188 120.68 915.454 124.12 917.854 127.64C920.254 131.107 922.788 134.467 925.454 137.72L929.294 140.28V143H915.934L912.494 140.36C910.041 137.427 907.854 134.04 905.934 130.2C904.068 126.307 902.414 122.493 900.974 118.76H894.494V137.64ZM898.494 91.56C896.841 91.56 895.508 91.72 894.494 92.04V114.36H899.214C901.934 114.36 904.254 113.4 906.174 111.48C908.094 109.507 909.054 106.6 909.054 102.76C909.054 100.787 908.788 99.1067 908.254 97.72C907.721 96.28 906.974 95.1067 906.014 94.2C905.054 93.2933 903.934 92.6267 902.654 92.2C901.374 91.7733 899.988 91.56 898.494 91.56ZM956.276 143H936.516V139.96C937.369 139.427 938.276 138.973 939.236 138.6C940.249 138.173 941.236 137.853 942.196 137.64L962.836 86.04H968.756L988.836 137.64C989.902 137.853 990.969 138.173 992.036 138.6C993.102 138.973 994.036 139.427 994.836 139.96V143H969.796V139.96C970.809 139.48 971.902 139.027 973.076 138.6C974.249 138.173 975.369 137.853 976.436 137.64L971.796 124.92H954.036L949.316 137.64C951.769 137.96 954.089 138.733 956.276 139.96V143ZM955.956 119.72H970.116L964.916 104.44L963.396 97.56H963.236L961.476 104.6L955.956 119.72ZM1040.4 87H1060.24V90.04C1059.22 90.84 1058.1 91.56 1056.88 92.2C1055.65 92.7867 1054.5 93.24 1053.44 93.56V143.96H1046.64L1018.4 103.16L1015.2 97H1014.96L1015.68 103.4V136.76C1016.74 137.027 1017.92 137.48 1019.2 138.12C1020.53 138.707 1021.65 139.32 1022.56 139.96V143H1002.8V139.96C1003.76 139.32 1004.8 138.733 1005.92 138.2C1007.09 137.613 1008.29 137.133 1009.52 136.76V93.08C1008.45 92.6533 1007.38 92.1733 1006.32 91.64C1005.25 91.1067 1004.29 90.5467 1003.44 89.96V87H1020.72L1043.68 120.28L1047.36 127.16H1047.68L1047.28 120.28V93.56C1046 93.1333 1044.74 92.6267 1043.52 92.04C1042.34 91.4 1041.3 90.7333 1040.4 90.04V87ZM1108.62 143H1081.1V139.96C1082.17 139.533 1083.37 139.107 1084.7 138.68C1086.09 138.2 1087.48 137.853 1088.86 137.64V92.2H1079.58L1074.46 105.88H1071.18C1070.97 104.813 1070.76 103.453 1070.54 101.8C1070.33 100.147 1070.14 98.44 1069.98 96.68C1069.82 94.92 1069.69 93.1867 1069.58 91.48C1069.48 89.72 1069.42 88.2267 1069.42 87H1120.3C1120.3 88.28 1120.25 89.7733 1120.14 91.48C1120.04 93.1867 1119.9 94.92 1119.74 96.68C1119.58 98.44 1119.4 100.147 1119.18 101.8C1118.97 103.4 1118.76 104.76 1118.54 105.88H1115.26L1110.14 92.2H1100.86V137.64C1102.25 137.907 1103.61 138.227 1104.94 138.6C1106.33 138.973 1107.56 139.427 1108.62 139.96V143Z" fill="white"/>
</svg>
