<svg width="1113" height="362" viewBox="0 0 1113 362" fill="none" xmlns="http://www.w3.org/2000/svg">
<path d="M138.196 320.57H145.699C146.187 322.522 146.614 324.901 146.98 327.707C147.468 330.391 147.834 333.319 148.078 336.491C148.444 339.541 148.688 342.591 148.81 345.641C148.932 348.691 148.993 351.436 148.993 353.876C144.723 356.56 139.355 358.451 132.889 359.549C126.545 360.647 120.018 361.196 113.308 361.196C103.182 361.196 93.971 359.976 85.675 357.536C77.501 354.974 70.486 351.009 64.63 345.641C58.896 340.151 54.443 333.258 51.271 324.962C48.099 316.544 46.513 306.479 46.513 294.767C46.513 283.177 48.221 273.234 51.637 264.938C55.175 256.52 59.872 249.627 65.728 244.259C71.584 238.891 78.355 234.987 86.041 232.547C93.849 229.985 102.023 228.704 110.563 228.704C118.615 228.704 125.874 229.314 132.34 230.534C138.928 231.632 144.296 233.157 148.444 235.109C148.444 237.061 148.322 239.562 148.078 242.612C147.956 245.662 147.651 248.895 147.163 252.311C146.797 255.605 146.309 258.899 145.699 262.193C145.211 265.365 144.723 268.049 144.235 270.245H136.549L126.484 242.612C125.386 242.002 123.617 241.514 121.177 241.148C118.737 240.782 116.236 240.599 113.674 240.599C108.672 240.599 103.975 241.636 99.583 243.71C95.191 245.662 91.287 248.834 87.871 253.226C84.455 257.618 81.771 263.291 79.819 270.245C77.867 277.077 76.891 285.312 76.891 294.95C76.891 312.396 80.368 325.816 87.322 335.21C94.276 344.604 103.731 349.301 115.687 349.301C119.103 349.301 121.97 349.057 124.288 348.569C126.728 347.959 128.375 347.166 129.229 346.19L138.196 320.57ZM253 359H190.048V352.046C192.488 351.07 195.233 350.094 198.283 349.118C201.455 348.02 204.627 347.227 207.799 346.739V242.795H186.571L174.859 274.088H167.356C166.868 271.648 166.38 268.537 165.892 264.755C165.404 260.973 164.977 257.069 164.611 253.043C164.245 249.017 163.94 245.052 163.696 241.148C163.452 237.122 163.33 233.706 163.33 230.9H279.718C279.718 233.828 279.596 237.244 279.352 241.148C279.108 245.052 278.803 249.017 278.437 253.043C278.071 257.069 277.644 260.973 277.156 264.755C276.668 268.415 276.18 271.526 275.692 274.088H268.189L256.477 242.795H235.249V346.739C238.421 347.349 241.532 348.081 244.582 348.935C247.754 349.789 250.56 350.826 253 352.046V359ZM330.412 346.739C333.706 347.227 336.939 347.959 340.111 348.935C343.405 349.789 346.333 350.826 348.895 352.046V359H287.956V352.046C290.274 350.704 292.714 349.606 295.276 348.752C297.96 347.898 300.522 347.227 302.962 346.739V243.161C300.156 242.673 297.472 242.002 294.91 241.148C292.348 240.172 290.03 239.074 287.956 237.854V230.9H311.014C315.894 230.9 321.445 230.656 327.667 230.168C334.011 229.68 339.806 229.436 345.052 229.436C351.518 229.436 357.801 230.107 363.901 231.449C370.123 232.669 375.613 234.804 380.371 237.854C385.251 240.904 389.155 244.991 392.083 250.115C395.011 255.117 396.475 261.4 396.475 268.964C396.475 276.162 395.011 282.384 392.083 287.63C389.277 292.876 385.495 297.207 380.737 300.623C375.979 304.039 370.489 306.601 364.267 308.309C358.045 309.895 351.64 310.688 345.052 310.688C344.442 310.688 343.466 310.688 342.124 310.688C340.782 310.688 339.318 310.688 337.732 310.688C336.268 310.566 334.804 310.505 333.34 310.505C331.998 310.383 331.022 310.261 330.412 310.139V346.739ZM340.294 241.331C337.854 241.331 335.902 241.453 334.438 241.697C333.096 241.819 331.754 242.063 330.412 242.429V298.061C331.51 298.427 333.157 298.671 335.353 298.793C337.549 298.793 339.318 298.793 340.66 298.793C343.954 298.793 347.126 298.244 350.176 297.146C353.226 296.048 355.91 294.34 358.228 292.022C360.668 289.704 362.62 286.715 364.084 283.055C365.548 279.395 366.28 275.003 366.28 269.879C366.28 260.119 363.901 252.921 359.143 248.285C354.385 243.649 348.102 241.331 340.294 241.331ZM461.924 359H406.841V352.046C409.159 350.826 411.599 349.728 414.161 348.752C416.723 347.776 419.285 347.105 421.847 346.739V243.161C419.407 242.551 416.845 241.88 414.161 241.148C411.477 240.294 409.037 239.196 406.841 237.854V230.9H461.924V237.854C460.094 238.952 458.02 239.989 455.702 240.965C453.384 241.941 450.883 242.673 448.199 243.161V312.701L446.369 326.975L455.336 311.969L501.452 247.553V243.161C495.718 241.819 490.899 240.05 486.995 237.854V230.9H542.078V237.854C540.004 239.196 537.625 240.294 534.941 241.148C532.379 241.88 529.756 242.551 527.072 243.161V346.739C529.878 347.227 532.501 347.959 534.941 348.935C537.503 349.789 539.882 350.826 542.078 352.046V359H486.995V352.046C488.703 351.192 490.716 350.277 493.034 349.301C495.474 348.203 498.036 347.349 500.72 346.739V277.382L502.55 262.925L494.315 277.382L447.467 342.713V346.739C450.273 347.349 452.896 348.142 455.336 349.118C457.776 350.094 459.972 351.07 461.924 352.046V359ZM593.739 346.739C596.789 347.227 599.778 347.959 602.706 348.935C605.756 349.911 608.623 350.948 611.307 352.046V359H551.283V352.046C556.651 349.362 561.653 347.593 566.289 346.739V243.161C563.849 242.673 561.287 242.002 558.603 241.148C556.041 240.294 553.601 239.196 551.283 237.854V230.9H644.979C644.979 233.828 644.918 237.183 644.796 240.965C644.674 244.747 644.491 248.651 644.247 252.677C644.003 256.703 643.637 260.668 643.149 264.572C642.661 268.354 642.173 271.77 641.685 274.82H634.182L622.653 242.795H593.739V346.739ZM707.559 359H652.476V352.046C654.794 350.826 657.234 349.728 659.796 348.752C662.358 347.776 664.92 347.105 667.482 346.739V243.161C665.042 242.551 662.48 241.88 659.796 241.148C657.112 240.294 654.672 239.196 652.476 237.854V230.9H707.559V237.854C705.729 238.952 703.655 239.989 701.337 240.965C699.019 241.941 696.518 242.673 693.834 243.161V312.701L692.004 326.975L700.971 311.969L747.087 247.553V243.161C741.353 241.819 736.534 240.05 732.63 237.854V230.9H787.713V237.854C785.639 239.196 783.26 240.294 780.576 241.148C778.014 241.88 775.391 242.551 772.707 243.161V346.739C775.513 347.227 778.136 347.959 780.576 348.935C783.138 349.789 785.517 350.826 787.713 352.046V359H732.63V352.046C734.338 351.192 736.351 350.277 738.669 349.301C741.109 348.203 743.671 347.349 746.355 346.739V277.382L748.185 262.925L739.95 277.382L693.102 342.713V346.739C695.908 347.349 698.531 348.142 700.971 349.118C703.411 350.094 705.607 351.07 707.559 352.046V359ZM852.366 359H796.917V352.046C798.991 350.948 801.37 349.911 804.054 348.935C806.86 347.959 809.483 347.227 811.923 346.739V243.161C808.995 242.673 806.189 241.941 803.505 240.965C800.821 239.989 798.625 238.952 796.917 237.854V230.9H852.366V237.854C850.536 239.074 848.462 240.172 846.144 241.148C843.948 242.124 841.691 242.795 839.373 243.161V287.447H887.868V243.161C885.184 242.673 882.744 241.941 880.548 240.965C878.474 239.989 876.583 238.952 874.875 237.854V230.9H930.324V237.854C928.25 239.196 925.871 240.294 923.187 241.148C920.503 242.002 917.88 242.673 915.318 243.161V346.739C918.124 347.227 920.808 347.959 923.37 348.935C926.054 349.911 928.372 350.948 930.324 352.046V359H874.875V352.046C876.705 350.948 878.718 349.911 880.914 348.935C883.11 347.959 885.428 347.227 887.868 346.739V299.342H839.373V346.739C841.813 347.227 844.07 347.898 846.144 348.752C848.218 349.606 850.292 350.704 852.366 352.046V359ZM942.87 294.95C942.87 285.434 944.212 276.65 946.896 268.598C949.58 260.424 953.545 253.409 958.791 247.553C964.037 241.575 970.503 236.939 978.189 233.645C985.875 230.351 994.72 228.704 1004.72 228.704C1014.73 228.704 1023.57 230.351 1031.26 233.645C1038.94 236.939 1045.35 241.575 1050.47 247.553C1055.72 253.409 1059.68 260.424 1062.37 268.598C1065.05 276.65 1066.39 285.434 1066.39 294.95C1066.39 304.466 1065.05 313.311 1062.37 321.485C1059.68 329.537 1055.72 336.552 1050.47 342.53C1045.35 348.386 1038.94 352.961 1031.26 356.255C1023.57 359.549 1014.73 361.196 1004.72 361.196C994.72 361.196 985.875 359.549 978.189 356.255C970.503 352.961 964.037 348.386 958.791 342.53C953.545 336.552 949.58 329.537 946.896 321.485C944.212 313.311 942.87 304.466 942.87 294.95ZM973.98 294.95C973.98 302.758 974.59 310.017 975.81 316.727C977.03 323.315 978.921 329.049 981.483 333.929C984.167 338.687 987.522 342.469 991.548 345.275C995.696 347.959 1000.64 349.301 1006.37 349.301C1011.62 349.301 1016.07 347.959 1019.73 345.275C1023.39 342.469 1026.38 338.687 1028.7 333.929C1031.01 329.049 1032.66 323.315 1033.64 316.727C1034.74 310.017 1035.28 302.758 1035.28 294.95C1035.28 287.142 1034.67 279.944 1033.45 273.356C1032.36 266.646 1030.53 260.912 1027.96 256.154C1025.52 251.274 1022.23 247.492 1018.08 244.808C1014.06 242.002 1009.12 240.599 1003.26 240.599C997.648 240.599 992.951 242.002 989.169 244.808C985.387 247.492 982.337 251.274 980.019 256.154C977.823 260.912 976.237 266.646 975.261 273.356C974.407 279.944 973.98 287.142 973.98 294.95Z" fill="white"/>
<path d="M471.194 8.71595C462.51 15.3167 455.019 21.3832 452.163 23.7578L452.134 23.7815L452.107 23.8074L443.116 32.4906L443.106 32.4998L443.097 32.5091L433.551 42.2261L433.537 42.2403L433.523 42.2549L426.863 49.5944L426.815 49.6472L426.775 49.7063L423.001 55.2884L422.987 55.3082L422.975 55.3286L419.201 61.531L419.153 61.6093L419.12 61.6951L416.012 69.8615L415.987 69.9281L415.971 69.9976L414.528 76.4066L414.504 76.5151V76.6263V83.0354V83.154L414.531 83.2694L415.974 89.265L416 89.3701L416.047 89.4673L419.155 95.8764L419.267 96.1064L419.475 96.2546L427.023 101.63L427.098 101.683L427.181 101.722L433.842 104.823L433.873 104.838L433.906 104.85L441.594 107.798L441.65 107.819L441.709 107.834C442.858 108.122 443.49 108.212 444.226 108.316C444.293 108.326 444.362 108.335 444.432 108.345C445.235 108.46 446.272 108.62 448.387 109.102L448.44 109.114L448.493 109.12C450.375 109.34 452.436 109.614 454.03 109.834C454.826 109.943 455.504 110.039 455.983 110.108C456.222 110.142 456.412 110.17 456.542 110.189L456.69 110.21L456.703 110.212C456.8 110.234 456.908 110.258 457.027 110.285C458.599 110.636 461.917 111.377 464.188 112.517L469.557 116.059L471.562 120.963V125.708L469.979 131.994L464.498 138.899L458.184 144.779L448.748 150.705L437.901 156.477L437.886 156.485L437.871 156.494L431.529 160.16L425.169 162.134L420.489 161.67L417.828 159.192L416.467 154.611L415.754 151.86L416.469 148.529L418.312 143.077L420.874 138.227L424.096 134.852L427.287 132.306L430.526 130.533L431.741 129.868L430.727 128.924L428.285 126.65L428.101 126.479L427.858 126.415L421.975 124.865L421.85 124.831H421.72H415.504H415.369L415.239 124.867L409.578 126.418L409.368 126.475L409.201 126.615L403.761 131.163L403.73 131.19L403.701 131.218L398.36 136.484L398.281 136.561L398.222 136.654L394.682 142.139L394.667 142.163L394.652 142.188L391.766 147.273L391.732 147.334L391.706 147.399L389.618 152.684L389.59 152.755L389.573 152.83L388.668 156.809L388.664 156.828L388.002 159.497L387.973 159.616V159.738V162.632V162.659L387.974 162.686L388.196 166.821L388.201 166.911L388.222 166.999C388.553 168.387 388.775 169.561 388.961 170.549L388.966 170.579C389.114 171.36 389.245 172.056 389.393 172.624C389.535 173.169 389.719 173.712 390.028 174.146L391.229 176.103C370.014 158.48 356.67 132.838 356.67 104.33C356.67 51.2828 402.872 8.16016 460.018 8.16016C463.794 8.16016 467.523 8.34863 471.194 8.71595ZM460.018 200.5C438.334 200.5 418.226 194.291 401.621 183.688L407.614 185.107L407.693 185.125L407.775 185.131L416.878 185.761L416.912 185.763H416.947H426.143H426.231L426.318 185.748L438.547 183.567L438.571 183.563L438.595 183.557L447.143 181.593L447.254 181.568L447.357 181.518L456.903 176.866L456.913 176.861L456.922 176.857L467.801 171.275L467.843 171.253L467.883 171.227L482.425 161.924L482.454 161.905L482.481 161.885L499.798 149.067L499.844 149.033L499.885 148.995L510.875 138.761L510.956 138.685L511.019 138.593L519.345 126.395L519.396 126.319L519.434 126.235L522.764 118.689L522.849 118.496V118.285V106.811V106.633L522.787 106.465L520.234 99.5392L520.152 99.3156L519.977 99.1532L515.204 94.7082L515.189 94.6947L515.174 94.6817L510.845 90.9603L510.692 90.8289L510.5 90.767L502.175 88.0793L502.042 88.0365L501.903 88.0316L482.241 87.3339L475.52 86.8776L470.281 85.2046L464.626 82.2274L461.142 78.5568L459.823 73.4981L461.175 66.9143L465.966 60.4691L477.249 51.0843L487.123 45.1588L502.246 38.3743L513.581 34.1727L521.519 32.4722L527.392 31.4047C549.432 49.053 563.365 75.1857 563.365 104.33C563.365 157.377 517.163 200.5 460.018 200.5Z" fill="white" stroke="white" stroke-width="2"/>
<path d="M509.772 1.57452L520.773 9.25787L520.776 9.26455L519.162 8.93059L519.104 8.91844L519.044 8.91339L516.025 8.65827L515.949 8.65192L515.874 8.65693L509.658 9.07042L509.582 9.07546L509.507 9.09192L500.183 11.1594L500.092 11.1796L500.006 11.2164L488.905 15.9716L488.85 15.9948L488.799 16.0244L476.839 22.9172L476.79 22.9455L476.744 22.9793L465.504 31.2821L465.466 31.3099L465.431 31.341L446.005 48.7075L445.971 48.7381L445.94 48.7718L440.167 54.9741L440.113 55.0326L440.068 55.0991L434.74 63.0588L434.689 63.1346L434.653 63.2183L430.99 71.6949L430.927 71.8392L430.912 71.9956L430.135 80.0587L430.119 80.2228L430.157 80.3833L430.934 83.6912L430.976 83.8706L431.079 84.0231L434.299 88.7782L434.405 88.9351L434.561 89.0422L440.888 93.3838L440.969 93.4393L441.059 93.478L445.389 95.3387L445.509 95.3903L445.638 95.4093L456.142 96.9538L469.663 100.127L474.364 102.216L478.299 105.088L481.974 109.215L484.411 112.472L485.563 115.688L486.3 118.828V122.641V126.395L485.065 129.846L481.047 136.116L473.374 145.711L465.621 152.117L451.193 161.245C450.27 161.657 449.033 162.215 447.798 162.772C447.273 163.009 446.748 163.246 446.249 163.471C445.396 163.855 444.615 164.205 444.025 164.467C443.73 164.598 443.484 164.706 443.303 164.785C443.145 164.853 443.064 164.886 443.038 164.896C443.03 164.9 443.027 164.901 443.028 164.901C440.759 165.65 438.829 165.919 437.129 165.994L441.028 164.561L441.107 164.532L441.181 164.49L447.391 160.929L447.408 160.919L447.425 160.908L458.242 154.119L458.299 154.083L458.351 154.04L468.293 145.737L468.367 145.675L468.428 145.6L476.42 135.78L476.474 135.713L476.516 135.638L480.291 128.919L480.371 128.776L480.402 128.614L481.623 122.101L481.66 121.905L481.618 121.711L480.397 115.922L480.37 115.794L480.312 115.678L477.759 110.613L477.66 110.418L477.49 110.281L471.273 105.319L471.111 105.19L470.911 105.136L459.477 102.035L459.434 102.023L459.39 102.015L450.074 100.363L450.065 100.361L438.607 98.2271L429.26 92.3246L424.643 86.3639L423.805 80.8033V74.4548L427.257 65.8152L431.966 57.8604L437.336 50.5131L443.604 44.0618L451.881 36.0459L464.001 26.5537L464.002 26.5529L471.29 20.8611L479.033 16.0542L492.49 8.35952L500.882 3.73883L500.891 3.73371L500.9 3.7284L504.216 1.8099L506.387 1.20326L507.866 1.01801L509.772 1.57452Z" fill="white" stroke="white" stroke-width="2"/>
<path d="M3.9325 114C3.9325 109.84 4.51917 106 5.6925 102.48C6.86583 98.9067 8.59917 95.84 10.8925 93.28C13.1858 90.6667 16.0125 88.64 19.3725 87.2C22.7325 85.76 26.5992 85.04 30.9725 85.04C35.3458 85.04 39.2125 85.76 42.5725 87.2C45.9325 88.64 48.7325 90.6667 50.9725 93.28C53.2658 95.84 54.9992 98.9067 56.1725 102.48C57.3458 106 57.9325 109.84 57.9325 114C57.9325 118.16 57.3458 122.027 56.1725 125.6C54.9992 129.12 53.2658 132.187 50.9725 134.8C48.7325 137.36 45.9325 139.36 42.5725 140.8C39.2125 142.24 35.3458 142.96 30.9725 142.96C26.5992 142.96 22.7325 142.24 19.3725 140.8C16.0125 139.36 13.1858 137.36 10.8925 134.8C8.59917 132.187 6.86583 129.12 5.6925 125.6C4.51917 122.027 3.9325 118.16 3.9325 114ZM17.5325 114C17.5325 117.413 17.7992 120.587 18.3325 123.52C18.8658 126.4 19.6925 128.907 20.8125 131.04C21.9858 133.12 23.4525 134.773 25.2125 136C27.0258 137.173 29.1858 137.76 31.6925 137.76C33.9858 137.76 35.9325 137.173 37.5325 136C39.1325 134.773 40.4392 133.12 41.4525 131.04C42.4658 128.907 43.1858 126.4 43.6125 123.52C44.0925 120.587 44.3325 117.413 44.3325 114C44.3325 110.587 44.0658 107.44 43.5325 104.56C43.0525 101.627 42.2525 99.12 41.1325 97.04C40.0658 94.9067 38.6258 93.2533 36.8125 92.08C35.0525 90.8533 32.8925 90.24 30.3325 90.24C27.8792 90.24 25.8258 90.8533 24.1725 92.08C22.5192 93.2533 21.1858 94.9067 20.1725 97.04C19.2125 99.12 18.5192 101.627 18.0925 104.56C17.7192 107.44 17.5325 110.587 17.5325 114ZM111.125 142H83.605V138.96C84.6717 138.533 85.8717 138.107 87.205 137.68C88.5917 137.2 89.9783 136.853 91.365 136.64V91.2H82.085L76.965 104.88H73.685C73.4717 103.813 73.2583 102.453 73.045 100.8C72.8317 99.1467 72.645 97.44 72.485 95.68C72.325 93.92 72.1917 92.1867 72.085 90.48C71.9783 88.72 71.925 87.2267 71.925 86H122.805C122.805 87.28 122.752 88.7733 122.645 90.48C122.538 92.1867 122.405 93.92 122.245 95.68C122.085 97.44 121.898 99.1467 121.685 100.8C121.472 102.4 121.258 103.76 121.045 104.88H117.765L112.645 91.2H103.365V136.64C104.752 136.907 106.112 137.227 107.445 137.6C108.832 137.973 110.058 138.427 111.125 138.96V142ZM177.286 86C177.18 88.4 176.993 90.88 176.726 93.44C176.46 96 176.113 98.4 175.686 100.64H172.406L168.726 91.2H153.766V110.8H163.526L167.046 104.64H169.606C169.873 107.253 170.006 110.16 170.006 113.36C170.006 116.56 169.873 119.547 169.606 122.32H167.046L163.526 116H153.766V136.8H169.366L173.606 126.64H176.886C177.1 127.653 177.313 128.8 177.526 130.08C177.74 131.36 177.9 132.693 178.006 134.08C178.166 135.413 178.273 136.773 178.326 138.16C178.433 139.547 178.486 140.827 178.486 142H135.206V138.96C136.113 138.48 137.126 138.027 138.246 137.6C139.366 137.173 140.54 136.853 141.766 136.64V91.36C140.7 91.1467 139.553 90.8533 138.326 90.48C137.153 90.0533 136.113 89.5733 135.206 89.04V86H177.286ZM208.288 92.16C206.634 91.8933 205.061 91.4667 203.568 90.88C202.128 90.2933 200.874 89.68 199.808 89.04V86H245.968V89.04C245.168 89.52 244.181 89.9733 243.008 90.4C241.888 90.8267 240.688 91.1467 239.408 91.36V136.64C240.634 136.853 241.781 137.173 242.848 137.6C243.968 138.027 245.008 138.48 245.968 138.96V142H221.328V138.96C222.234 138.48 223.194 138.053 224.208 137.68C225.274 137.253 226.341 136.907 227.408 136.64V91.2H214.368C214.208 99.3067 213.834 106.08 213.248 111.52C212.661 116.907 211.941 121.36 211.088 124.88C210.234 128.4 209.274 131.2 208.208 133.28C207.194 135.307 206.128 137.067 205.008 138.56C203.994 139.947 202.714 141.04 201.168 141.84C199.621 142.587 198.128 142.96 196.688 142.96C195.994 142.693 195.328 142.16 194.688 141.36C194.048 140.507 193.461 139.547 192.928 138.48C192.394 137.413 191.941 136.293 191.568 135.12C191.248 133.947 191.061 132.853 191.008 131.84L193.168 128.8L202.688 131.12C203.381 129.627 204.048 127.84 204.688 125.76C205.381 123.627 205.994 121.013 206.528 117.92C207.061 114.827 207.488 111.173 207.808 106.96C208.128 102.747 208.288 97.8133 208.288 92.16ZM258.781 142V138.96C259.741 138.427 260.781 137.947 261.901 137.52C263.075 137.093 264.221 136.8 265.341 136.64V91.36C264.275 91.1467 263.155 90.8533 261.981 90.48C260.808 90.1067 259.741 89.6267 258.781 89.04V86H284.701V89.04C283.795 89.5733 282.675 90.0533 281.341 90.48C280.008 90.8533 278.675 91.1467 277.341 91.36V108.48C278.301 108.32 279.501 108.187 280.941 108.08C282.435 107.973 283.715 107.92 284.781 107.92C287.821 107.92 290.648 108.213 293.261 108.8C295.875 109.387 298.141 110.347 300.061 111.68C301.981 112.96 303.475 114.667 304.541 116.8C305.661 118.88 306.221 121.413 306.221 124.4C306.221 127.44 305.635 130.08 304.461 132.32C303.341 134.56 301.741 136.427 299.661 137.92C297.581 139.36 295.075 140.453 292.141 141.2C289.208 141.893 285.955 142.24 282.381 142.24C282.115 142.24 281.528 142.213 280.621 142.16C279.715 142.16 278.701 142.133 277.581 142.08C276.461 142.08 275.288 142.053 274.061 142C272.888 142 271.901 142 271.101 142H258.781ZM281.821 113.12C279.955 113.12 278.461 113.28 277.341 113.6V136.72C277.821 136.827 278.568 136.907 279.581 136.96C280.595 137.013 281.395 137.04 281.981 137.04C283.421 137.04 284.808 136.827 286.141 136.4C287.475 135.92 288.648 135.2 289.661 134.24C290.675 133.227 291.475 131.92 292.061 130.32C292.701 128.72 293.021 126.747 293.021 124.4C293.021 120.56 291.981 117.733 289.901 115.92C287.875 114.053 285.181 113.12 281.821 113.12ZM618.576 136.64C620.016 136.853 621.429 137.173 622.816 137.6C624.256 137.973 625.536 138.427 626.656 138.96V142H600.016V138.96C601.029 138.373 602.096 137.893 603.216 137.52C604.389 137.147 605.509 136.853 606.576 136.64V91.36C605.349 91.1467 604.176 90.8533 603.056 90.48C601.936 90.0533 600.922 89.5733 600.016 89.04V86H610.096C612.229 86 614.656 85.8933 617.376 85.68C620.149 85.4667 622.682 85.36 624.976 85.36C627.802 85.36 630.549 85.6533 633.216 86.24C635.936 86.7733 638.336 87.7067 640.416 89.04C642.549 90.3733 644.256 92.16 645.536 94.4C646.816 96.5867 647.456 99.3333 647.456 102.64C647.456 105.787 646.816 108.507 645.536 110.8C644.309 113.093 642.656 114.987 640.576 116.48C638.496 117.973 636.096 119.093 633.376 119.84C630.656 120.533 627.856 120.88 624.976 120.88C624.709 120.88 624.282 120.88 623.696 120.88C623.109 120.88 622.469 120.88 621.776 120.88C621.136 120.827 620.496 120.8 619.856 120.8C619.269 120.747 618.842 120.693 618.576 120.64V136.64ZM622.896 90.56C621.829 90.56 620.976 90.6133 620.336 90.72C619.749 90.7733 619.162 90.88 618.576 91.04V115.36C619.056 115.52 619.776 115.627 620.736 115.68C621.696 115.68 622.469 115.68 623.056 115.68C624.496 115.68 625.882 115.44 627.216 114.96C628.549 114.48 629.722 113.733 630.736 112.72C631.802 111.707 632.656 110.4 633.296 108.8C633.936 107.2 634.256 105.28 634.256 103.04C634.256 98.7733 633.216 95.6267 631.136 93.6C629.056 91.5733 626.309 90.56 622.896 90.56ZM702.868 86C702.761 88.4 702.574 90.88 702.308 93.44C702.041 96 701.694 98.4 701.268 100.64H697.988L694.308 91.2H679.348V110.8H689.108L692.628 104.64H695.188C695.454 107.253 695.588 110.16 695.588 113.36C695.588 116.56 695.454 119.547 695.188 122.32H692.628L689.108 116H679.348V136.8H694.948L699.188 126.64H702.468C702.681 127.653 702.894 128.8 703.108 130.08C703.321 131.36 703.481 132.693 703.588 134.08C703.748 135.413 703.854 136.773 703.908 138.16C704.014 139.547 704.068 140.827 704.068 142H660.788V138.96C661.694 138.48 662.708 138.027 663.828 137.6C664.948 137.173 666.121 136.853 667.348 136.64V91.36C666.281 91.1467 665.134 90.8533 663.908 90.48C662.734 90.0533 661.694 89.5733 660.788 89.04V86H702.868ZM760.269 125.2H763.549C763.762 126.053 763.949 127.093 764.109 128.32C764.322 129.493 764.482 130.773 764.589 132.16C764.749 133.493 764.855 134.827 764.909 136.16C764.962 137.493 764.989 138.693 764.989 139.76C763.122 140.933 760.775 141.76 757.949 142.24C755.175 142.72 752.322 142.96 749.389 142.96C744.962 142.96 740.935 142.427 737.309 141.36C733.735 140.24 730.669 138.507 728.109 136.16C725.602 133.76 723.655 130.747 722.269 127.12C720.882 123.44 720.189 119.04 720.189 113.92C720.189 108.853 720.935 104.507 722.429 100.88C723.975 97.2 726.029 94.1867 728.589 91.84C731.149 89.4933 734.109 87.7867 737.469 86.72C740.882 85.6 744.455 85.04 748.189 85.04C751.709 85.04 754.882 85.3067 757.709 85.84C760.589 86.32 762.935 86.9867 764.749 87.84C764.749 88.6933 764.695 89.7867 764.589 91.12C764.535 92.4533 764.402 93.8667 764.189 95.36C764.029 96.8 763.815 98.24 763.549 99.68C763.335 101.067 763.122 102.24 762.909 103.2H759.549L755.149 91.12C754.669 90.8533 753.895 90.64 752.829 90.48C751.762 90.32 750.669 90.24 749.549 90.24C747.362 90.24 745.309 90.6933 743.389 91.6C741.469 92.4533 739.762 93.84 738.269 95.76C736.775 97.68 735.602 100.16 734.749 103.2C733.895 106.187 733.469 109.787 733.469 114C733.469 121.627 734.989 127.493 738.029 131.6C741.069 135.707 745.202 137.76 750.429 137.76C751.922 137.76 753.175 137.653 754.189 137.44C755.255 137.173 755.975 136.827 756.349 136.4L760.269 125.2ZM819.256 142H791.736V138.96C792.803 138.533 794.003 138.107 795.336 137.68C796.723 137.2 798.11 136.853 799.496 136.64V91.2H790.216L785.096 104.88H781.816C781.603 103.813 781.39 102.453 781.176 100.8C780.963 99.1467 780.776 97.44 780.616 95.68C780.456 93.92 780.323 92.1867 780.216 90.48C780.11 88.72 780.056 87.2267 780.056 86H830.936C830.936 87.28 830.883 88.7733 830.776 90.48C830.67 92.1867 830.536 93.92 830.376 95.68C830.216 97.44 830.03 99.1467 829.816 100.8C829.603 102.4 829.39 103.76 829.176 104.88H825.896L820.776 91.2H811.496V136.64C812.883 136.907 814.243 137.227 815.576 137.6C816.963 137.973 818.19 138.427 819.256 138.96V142ZM844.857 114C844.857 109.84 845.444 106 846.617 102.48C847.791 98.9067 849.524 95.84 851.817 93.28C854.111 90.6667 856.937 88.64 860.297 87.2C863.657 85.76 867.524 85.04 871.897 85.04C876.271 85.04 880.137 85.76 883.497 87.2C886.857 88.64 889.657 90.6667 891.897 93.28C894.191 95.84 895.924 98.9067 897.097 102.48C898.271 106 898.857 109.84 898.857 114C898.857 118.16 898.271 122.027 897.097 125.6C895.924 129.12 894.191 132.187 891.897 134.8C889.657 137.36 886.857 139.36 883.497 140.8C880.137 142.24 876.271 142.96 871.897 142.96C867.524 142.96 863.657 142.24 860.297 140.8C856.937 139.36 854.111 137.36 851.817 134.8C849.524 132.187 847.791 129.12 846.617 125.6C845.444 122.027 844.857 118.16 844.857 114ZM858.457 114C858.457 117.413 858.724 120.587 859.257 123.52C859.791 126.4 860.617 128.907 861.737 131.04C862.911 133.12 864.377 134.773 866.137 136C867.951 137.173 870.111 137.76 872.617 137.76C874.911 137.76 876.857 137.173 878.457 136C880.057 134.773 881.364 133.12 882.377 131.04C883.391 128.907 884.111 126.4 884.537 123.52C885.017 120.587 885.257 117.413 885.257 114C885.257 110.587 884.991 107.44 884.457 104.56C883.977 101.627 883.177 99.12 882.057 97.04C880.991 94.9067 879.551 93.2533 877.737 92.08C875.977 90.8533 873.817 90.24 871.257 90.24C868.804 90.24 866.751 90.8533 865.097 92.08C863.444 93.2533 862.111 94.9067 861.097 97.04C860.137 99.12 859.444 101.627 859.017 104.56C858.644 107.44 858.457 110.587 858.457 114ZM931.81 136.64C933.25 136.853 934.663 137.173 936.05 137.6C937.49 137.973 938.77 138.427 939.89 138.96V142H913.25V138.96C914.263 138.373 915.33 137.893 916.45 137.52C917.623 137.147 918.743 136.853 919.81 136.64V91.36C918.583 91.1467 917.41 90.8533 916.29 90.48C915.17 90.0533 914.157 89.5733 913.25 89.04V86H923.33C925.463 86 927.89 85.8933 930.61 85.68C933.383 85.4667 935.917 85.36 938.21 85.36C941.037 85.36 943.783 85.6533 946.45 86.24C949.17 86.7733 951.57 87.7067 953.65 89.04C955.783 90.3733 957.49 92.16 958.77 94.4C960.05 96.5867 960.69 99.3333 960.69 102.64C960.69 105.787 960.05 108.507 958.77 110.8C957.543 113.093 955.89 114.987 953.81 116.48C951.73 117.973 949.33 119.093 946.61 119.84C943.89 120.533 941.09 120.88 938.21 120.88C937.943 120.88 937.517 120.88 936.93 120.88C936.343 120.88 935.703 120.88 935.01 120.88C934.37 120.827 933.73 120.8 933.09 120.8C932.503 120.747 932.077 120.693 931.81 120.64V136.64ZM936.13 90.56C935.063 90.56 934.21 90.6133 933.57 90.72C932.983 90.7733 932.397 90.88 931.81 91.04V115.36C932.29 115.52 933.01 115.627 933.97 115.68C934.93 115.68 935.703 115.68 936.29 115.68C937.73 115.68 939.117 115.44 940.45 114.96C941.783 114.48 942.957 113.733 943.97 112.72C945.037 111.707 945.89 110.4 946.53 108.8C947.17 107.2 947.49 105.28 947.49 103.04C947.49 98.7733 946.45 95.6267 944.37 93.6C942.29 91.5733 939.543 90.56 936.13 90.56ZM985.307 142H965.547V138.96C966.4 138.427 967.307 137.973 968.267 137.6C969.28 137.173 970.267 136.853 971.227 136.64L991.867 85.04H997.787L1017.87 136.64C1018.93 136.853 1020 137.173 1021.07 137.6C1022.13 137.973 1023.07 138.427 1023.87 138.96V142H998.827V138.96C999.84 138.48 1000.93 138.027 1002.11 137.6C1003.28 137.173 1004.4 136.853 1005.47 136.64L1000.83 123.92H983.067L978.347 136.64C980.8 136.96 983.12 137.733 985.307 138.96V142ZM984.987 118.72H999.147L993.947 103.44L992.427 96.56H992.267L990.507 103.6L984.987 118.72ZM1059.27 142H1035.03V138.96C1035.93 138.48 1036.97 138.027 1038.15 137.6C1039.37 137.173 1040.52 136.853 1041.59 136.64V91.36C1040.31 91.1467 1039.08 90.8267 1037.91 90.4C1036.73 89.9733 1035.77 89.52 1035.03 89.04V86H1059.27V89.04C1058.47 89.5733 1057.56 90.0533 1056.55 90.48C1055.59 90.9067 1054.6 91.2 1053.59 91.36V110.72H1074.79V91.36C1073.61 91.1467 1072.55 90.8267 1071.59 90.4C1070.68 89.9733 1069.85 89.52 1069.11 89.04V86H1093.35V89.04C1092.44 89.6267 1091.4 90.1067 1090.23 90.48C1089.05 90.8533 1087.91 91.1467 1086.79 91.36V136.64C1088.01 136.853 1089.19 137.173 1090.31 137.6C1091.48 138.027 1092.49 138.48 1093.35 138.96V142H1069.11V138.96C1069.91 138.48 1070.79 138.027 1071.75 137.6C1072.71 137.173 1073.72 136.853 1074.79 136.64V115.92H1053.59V136.64C1054.65 136.853 1055.64 137.147 1056.55 137.52C1057.45 137.893 1058.36 138.373 1059.27 138.96V142Z" fill="white"/>
</svg>
