<svg width="500" height="500" viewBox="0 0 500 500" fill="none" xmlns="http://www.w3.org/2000/svg">
<path d="M499.854 0H0.146484C0.0655833 0 0 0.0655833 0 0.146484V499.854C0 499.934 0.0655833 500 0.146484 500H499.854C499.934 500 500 499.934 500 499.854V0.146484C500 0.0655833 499.934 0 499.854 0Z" fill="black"/>
<path fill-rule="evenodd" clip-rule="evenodd" d="M283.666 141.711C272.115 136.917 259.69 134.591 247.187 134.882C244.426 134.946 242.136 132.76 242.072 129.999C242.008 127.239 244.193 124.949 246.954 124.884C260.851 124.561 274.661 127.147 287.499 132.475C300.338 137.803 311.921 145.756 321.504 155.824C331.088 165.892 338.462 177.853 343.151 190.938C347.841 204.023 349.744 217.944 348.737 231.808C348.537 234.562 346.142 236.632 343.388 236.432C340.633 236.232 338.563 233.838 338.763 231.083C339.669 218.61 337.957 206.085 333.738 194.312C329.518 182.539 322.884 171.778 314.261 162.719C305.639 153.661 295.217 146.505 283.666 141.711ZM268.985 161.776L312.465 207.294C311.856 204.011 310.962 200.779 309.786 197.636C307.061 190.346 302.883 183.685 297.507 178.056C292.131 172.428 285.668 167.95 278.51 164.894C275.424 163.576 272.236 162.534 268.985 161.776ZM255.854 150.274C264.991 150.264 274.035 152.109 282.437 155.697C290.84 159.285 298.427 164.542 304.738 171.149C311.049 177.756 315.953 185.576 319.153 194.134C322.353 202.692 323.782 211.811 323.354 220.938L322.807 232.598L297.671 206.284C297.932 208.2 298.032 210.141 297.966 212.084L297.575 223.592L251.018 177.034L262.526 176.644C264.995 176.56 267.459 176.743 269.877 177.187L244.181 150.286L255.854 150.274Z" fill="white"/>
<path fill-rule="evenodd" clip-rule="evenodd" d="M92.7734 226.562C92.7734 137.695 109.375 83.0078 250 83.0078C390.625 83.0078 407.227 137.695 407.227 226.562C407.227 315.43 390.625 370.117 250 370.117L224.609 369.141L172.852 430.664C168.945 434.57 165.039 431.641 165.039 427.734V360.352C159.18 360.352 134.766 348.633 127.93 341.797C106.445 319.336 92.7734 302.734 92.7734 226.562ZM63.4766 226.562C63.4766 103.516 117.188 53.7109 250 53.7109C382.812 53.7109 436.523 103.516 436.523 226.562C436.523 349.609 382.812 399.414 250 399.414C240.234 399.414 232.422 399.414 218.75 397.461L181.641 439.453C174.805 447.266 154.297 450.195 154.297 426.758V385.742C148.438 385.742 134.766 379.883 116.211 368.164C97.6562 355.469 63.4766 325.195 63.4766 226.562ZM281.25 267.578C287.76 259.115 295.573 257.812 304.688 263.672L339.844 290.039C345.052 296.549 342.773 305.664 333.008 317.383C323.242 329.102 314.128 333.984 305.664 332.031C271.159 324.219 237.956 304.688 206.055 273.438C174.154 242.188 154.297 208.333 146.484 171.875C146.484 158.854 154.622 147.786 170.898 138.672C179.362 132.812 186.523 134.44 192.383 143.555L216.797 177.734C220.703 185.547 218.424 192.708 209.961 199.219C171.875 213.867 259.766 308.594 281.25 267.578Z" fill="white"/>
</svg>
